<svg xmlns="http://www.w3.org/2000/svg" width="44.324" height="40.97" viewBox="0 0 44.324 40.97">
  <g id="file-upload-img" transform="translate(0 0)">
    <path id="Path_25" data-name="Path 25" d="M36.048,29.1a12.839,12.839,0,0,0-23.789-4.266,7.355,7.355,0,0,0-1.349-.128,7.037,7.037,0,0,0-7.027,7.027,7.682,7.682,0,0,0,.146,1.458A9.779,9.779,0,0,0,0,41.077,10.455,10.455,0,0,0,2.652,48a9.467,9.467,0,0,0,6.563,3.3h7.912a1.23,1.23,0,0,0,0-2.461h-7.8C5.6,48.606,2.461,45.06,2.461,41.068a7.305,7.305,0,0,1,3.619-6.289,1.241,1.241,0,0,0,.538-1.495,4.465,4.465,0,0,1-.273-1.568A4.575,4.575,0,0,1,10.91,27.15a4.488,4.488,0,0,1,1.559.273,1.236,1.236,0,0,0,1.54-.629,10.378,10.378,0,0,1,19.715,3.418,1.229,1.229,0,0,0,1.021,1.094,8.87,8.87,0,0,1-.839,17.518H27.189a1.23,1.23,0,1,0,0,2.461h6.854a10.9,10.9,0,0,0,7.31-3.609,11.344,11.344,0,0,0-5.3-18.576Z" transform="translate(0 -18.4)" fill="#74809d"/>
    <path id="Path_26" data-name="Path 26" d="M173.353,194.022a1.227,1.227,0,0,0,0-1.741l-6.517-6.517a1.245,1.245,0,0,0-.866-.365,1.207,1.207,0,0,0-.866.365l-6.517,6.517a1.235,1.235,0,0,0,.866,2.105,1.2,1.2,0,0,0,.866-.365l4.421-4.421v20.317a1.23,1.23,0,0,0,2.461,0V189.6l4.421,4.421A1.216,1.216,0,0,0,173.353,194.022Z" transform="translate(-143.803 -170.179)" fill="#74809d"/>
  </g>
</svg>
